# xmcd
# 
# Track frame offsets:
#     150
#     21707
#     34245
#     51882
#     70720
#     94432
#     112920
#     130370
#     148605
#     162470
#     178570
#     195157
#     215282
#     231720
#     243870
#     263257
#     285382
#     297632
#     311142
#     323695
# 
# Disc length: 4519
# 
# Revision: 3
# Processed by: cddbd v1.5.2PL0 Copyright (c) Steve Scherf et al.
# Submitted via: fre:ac v1.0.17
# 
DISCID=2d11a514
DTITLE=小林旭 - ゴールデン★ベスト
DYEAR=2003
DGENRE=Blues
TTITLE0=熱き心に
TTITLE1=北帰行
TTITLE2=北へ
TTITLE3=惜別の唄
TTITLE4=ゴンドラの唄
TTITLE5=ついて来るかい
TTITLE6=昔の名前で出ています
TTITLE7=ごめんね
TTITLE8=純子
TTITLE9=もう一度一から出なおします
TTITLE10=水たまり
TTITLE11=さすらいの道
TTITLE12=オロロン慕情
TTITLE13=青春挽歌
TTITLE14=ハーモニカの歌
TTITLE15=アキラのさらばシベリア鉄道
TTITLE16=自動車ショー歌
TTITLE17=恋の山手線
TTITLE18=アキラのダンチョネ節
TTITLE19=アキラのズンドコ節
EXTD=YEAR: 2003
EXTT0=
EXTT1=
EXTT2=
EXTT3=
EXTT4=
EXTT5=
EXTT6=
EXTT7=
EXTT8=
EXTT9=
EXTT10=
EXTT11=
EXTT12=
EXTT13=
EXTT14=
EXTT15=
EXTT16=
EXTT17=
EXTT18=
EXTT19=
PLAYORDER=
